<?xml version="1.0" standalone="no"?>
<!DOCTYPE svg PUBLIC "-//W3C//DTD SVG 20010904//EN"
 "http://www.w3.org/TR/2001/REC-SVG-20010904/DTD/svg10.dtd">
<svg version="1.0" xmlns="http://www.w3.org/2000/svg"
 width="548.000000pt" height="166.000000pt" viewBox="0 0 548.000000 166.000000"
 preserveAspectRatio="xMidYMid meet">

<g transform="translate(0.000000,166.000000) scale(0.100000,-0.100000)"
fill="#AD8A3D" stroke="none">
<path d="M2562 1563 c-37 -8 -89 -65 -102 -112 -13 -51 -8 -81 30 -159 98
-203 241 -377 423 -513 43 -33 79 -59 81 -59 2 0 30 -15 63 -33 82 -46 180
-87 209 -87 38 0 30 34 -18 71 -265 204 -414 433 -473 724 -16 82 -33 115 -76
147 -25 18 -97 30 -137 21z"/>
<path d="M3490 1440 c-72 -13 -132 -44 -177 -92 -51 -56 -67 -86 -88 -168 -52
-200 64 -441 284 -588 150 -101 285 -141 561 -168 376 -36 743 16 989 141 41
20 51 30 51 50 0 33 -12 32 -112 -10 -169 -72 -358 -105 -601 -105 -246 0
-478 32 -632 86 -156 56 -308 182 -371 309 -77 156 -47 336 65 382 53 22 202
13 258 -15 75 -39 95 -98 47 -143 -22 -21 -34 -24 -84 -21 -49 2 -63 -2 -84
-20 -27 -24 -35 -65 -23 -104 27 -82 243 -66 317 23 50 59 64 97 64 168 0 53
-5 80 -21 111 -67 126 -257 196 -443 164z"/>
<path d="M1115 1054 c-362 -41 -636 -158 -862 -368 -71 -66 -146 -158 -188
-229 -50 -88 -19 -176 68 -192 44 -9 101 15 123 52 113 187 246 309 441 407
144 73 229 98 433 127 166 24 202 23 420 -1 282 -31 515 -94 1000 -270 63 -23
147 -53 185 -66 39 -14 79 -29 90 -34 31 -15 340 -116 430 -140 466 -127 894
-174 1226 -136 374 44 650 136 891 297 72 48 89 65 81 85 -9 23 -39 16 -100
-25 -253 -168 -644 -271 -1033 -271 -307 0 -669 60 -1005 167 -187 60 -303
103 -670 250 -564 227 -845 309 -1180 343 -85 9 -285 11 -350 4z"/>
<path d="M1460 680 c-158 -22 -328 -88 -474 -183 -66 -44 -86 -62 -95 -90 -16
-47 0 -84 43 -102 43 -18 58 -13 121 40 140 118 289 192 454 226 122 25 335
26 425 2 72 -19 97 -14 89 16 -16 63 -364 119 -563 91z"/>
</g>
</svg>
