<?xml version="1.0" standalone="no"?>
<!DOCTYPE svg PUBLIC "-//W3C//DTD SVG 20010904//EN"
 "http://www.w3.org/TR/2001/REC-SVG-20010904/DTD/svg10.dtd">
<svg version="1.0" xmlns="http://www.w3.org/2000/svg"
 width="551.000000pt" height="166.000000pt" viewBox="0 0 551.000000 166.000000"
 preserveAspectRatio="xMidYMid meet">

<g transform="translate(0.000000,166.000000) scale(0.100000,-0.100000)"
fill="#AD8A3D" stroke="none">
<path d="M2845 1563 c-64 -18 -101 -69 -119 -165 -53 -277 -232 -555 -461
-718 -55 -39 -67 -73 -27 -78 34 -5 252 105 348 176 165 121 318 305 419 502
61 119 50 211 -30 264 -27 18 -98 28 -130 19z"/>
<path d="M1810 1436 c-172 -37 -279 -152 -267 -287 3 -30 12 -69 20 -85 22
-43 79 -98 123 -119 54 -26 162 -32 202 -11 37 19 54 66 39 109 -14 42 -45 57
-111 54 -52 -2 -60 1 -82 26 -42 49 -27 95 43 139 34 20 50 23 148 23 127 0
147 -8 193 -77 25 -38 27 -50 27 -137 0 -83 -4 -104 -27 -154 -61 -131 -189
-250 -335 -311 -161 -68 -408 -106 -683 -106 -231 0 -421 33 -590 102 -52 21
-101 36 -107 33 -7 -2 -13 -14 -13 -25 0 -20 53 -50 175 -100 89 -37 227 -66
404 -85 208 -22 330 -19 607 15 91 12 254 60 329 97 133 68 265 195 326 315
25 49 59 181 59 232 0 48 -26 148 -50 195 -68 133 -246 197 -430 157z"/>
<path d="M4070 1055 c-14 -3 -68 -10 -120 -16 -291 -34 -562 -117 -1100 -334
-407 -164 -536 -211 -751 -274 -773 -225 -1464 -177 -1959 134 -61 39 -90 44
-90 18 0 -24 8 -33 58 -68 148 -103 348 -193 552 -248 308 -84 740 -96 1115
-32 353 61 574 125 1082 311 572 211 777 268 1083 304 200 24 248 24 410 5
235 -29 427 -98 603 -217 84 -57 203 -181 263 -274 61 -95 96 -115 164 -95 50
15 71 41 77 95 6 52 -17 98 -102 206 -185 232 -494 405 -830 465 -84 15 -400
29 -455 20z"/>
<path d="M3705 674 c-160 -27 -260 -73 -227 -106 9 -9 31 -8 101 6 70 14 119
17 232 14 162 -6 244 -24 385 -84 81 -35 234 -137 262 -175 20 -29 77 -43 109
-27 71 34 63 114 -16 173 -231 169 -563 247 -846 199z"/>
</g>
</svg>
