<?xml version="1.0" standalone="no"?>
<!DOCTYPE svg PUBLIC "-//W3C//DTD SVG 20010904//EN"
 "http://www.w3.org/TR/2001/REC-SVG-20010904/DTD/svg10.dtd">
<svg version="1.0" xmlns="http://www.w3.org/2000/svg"
 width="202.000000pt" height="91.000000pt" viewBox="0 0 202.000000 91.000000"
 preserveAspectRatio="xMidYMid meet">

<g transform="translate(0.000000,91.000000) scale(0.100000,-0.100000)"
fill="#640a02" stroke="none">
<path d="M779 669 c-42 -9 -149 -49 -149 -55 0 -2 12 -54 26 -115 24 -100 25
-113 11 -121 -9 -5 -37 -24 -62 -43 -25 -19 -49 -35 -55 -35 -5 0 -50 25 -100
55 -50 30 -94 55 -98 55 -7 0 -53 -57 -100 -127 l-22 -31 90 -77 c49 -43 90
-79 90 -80 0 -1 -7 -19 -15 -38 -8 -20 -15 -41 -15 -47 0 -6 33 -10 84 -10
l85 0 23 48 c30 62 131 163 196 196 103 52 228 69 332 45 123 -28 259 -132
310 -237 l25 -51 89 -1 c66 0 87 3 83 13 -22 61 -30 87 -26 90 26 20 165 142
167 147 4 9 -72 121 -97 144 -20 19 -22 18 -114 -38 -51 -31 -97 -56 -101 -56
-19 0 -126 86 -126 101 0 10 11 62 24 117 l23 100 -56 20 c-82 30 -136 43
-139 34 -2 -4 -22 -52 -45 -107 l-43 -100 -81 -1 -81 -2 -42 102 c-23 55 -45
104 -49 107 -3 3 -22 2 -42 -2z"/>
</g>
</svg>
