<?xml version="1.0" standalone="no"?>
<!DOCTYPE svg PUBLIC "-//W3C//DTD SVG 20010904//EN"
 "http://www.w3.org/TR/2001/REC-SVG-20010904/DTD/svg10.dtd">
<svg version="1.0" xmlns="http://www.w3.org/2000/svg"
 width="113.000000pt" height="268.000000pt" viewBox="0 0 113.000000 268.000000"
 preserveAspectRatio="xMidYMid meet">

<g transform="translate(0.000000,268.000000) scale(0.100000,-0.100000)"
fill="#640a02" stroke="none">
<path d="M0 2406 c0 -33 2 -36 29 -36 51 0 61 -9 61 -54 0 -52 37 -131 81
-175 104 -103 291 -110 391 -14 l27 25 28 -20 c16 -11 61 -55 101 -96 l72 -76
-35 -45 c-36 -48 -65 -127 -65 -180 0 -71 30 -136 89 -196 59 -58 125 -89 192
-89 26 0 27 -2 34 -69 4 -38 4 -98 0 -134 l-7 -66 -47 -7 c-155 -22 -256 -136
-255 -289 1 -77 16 -120 63 -179 l30 -38 -46 -54 c-43 -50 -135 -134 -146
-134 -3 0 -28 16 -57 35 -28 19 -70 40 -93 46 -94 25 -221 -13 -285 -85 -45
-51 -62 -88 -70 -154 l-7 -57 -42 -3 -43 -3 0 -41 c0 -40 0 -40 31 -34 17 3
44 6 60 6 45 0 69 31 69 88 0 65 41 146 89 177 90 59 187 53 267 -16 59 -51
88 -51 151 -1 61 49 168 164 188 202 18 34 12 53 -30 101 -43 48 -58 98 -53
169 8 108 98 190 210 190 67 0 84 20 93 106 11 102 0 272 -20 294 -10 11 -38
20 -75 23 -142 15 -218 102 -208 237 4 58 17 85 80 162 27 34 21 49 -51 135
-69 82 -179 173 -209 173 -14 0 -43 -17 -68 -39 -142 -125 -346 -44 -361 143
-7 83 -23 98 -103 104 l-60 4 0 -36z"/>
<path d="M0 1841 c0 -38 0 -38 48 -45 103 -14 232 -97 300 -195 63 -88 84
-151 90 -262 6 -118 -16 -203 -76 -294 -71 -109 -171 -180 -292 -210 -70 -17
-70 -17 -70 -51 0 -40 15 -43 101 -18 147 44 294 165 356 294 159 330 -24 721
-378 805 -84 19 -79 21 -79 -24z"/>
</g>
</svg>
